<svg width="16" height="16" viewBox="0 0 16 16" fill="none" xmlns="http://www.w3.org/2000/svg">
  <path d="M4.49838 2.79466L8.19664 1.80372C8.63289 1.68682 9.09707 1.83781 9.38107 2.18899L10.2534 3.26764C10.3954 3.44323 10.6275 3.51873 10.8456 3.46028L12.1827 3.102C12.7924 2.93864 13.419 3.30045 13.5824 3.91012L15.5051 11.0856C15.6684 11.6952 15.3066 12.3219 14.6969 12.4853L4.20974 15.2953C3.60007 15.4587 2.9734 15.0969 2.81004 14.4872L0.88738 7.31175C0.724018 6.70207 1.08583 6.0754 1.6955 5.91204L3.03261 5.55376C3.25073 5.49531 3.41398 5.31389 3.44916 5.09083L3.66527 3.72053C3.73563 3.2744 4.06213 2.91156 4.49838 2.79466ZM8.9357 11.9584C10.6123 11.5092 11.6073 9.78586 11.158 8.10925C10.7088 6.43264 8.98545 5.43767 7.30884 5.88691C5.63223 6.33616 4.63726 8.0595 5.0865 9.73611C5.53575 11.4127 7.25909 12.4077 8.9357 11.9584ZM8.63991 10.8545C7.57298 11.1404 6.4763 10.5073 6.19042 9.44032C5.90454 8.37339 6.5377 7.27671 7.60463 6.99083C8.67157 6.70495 9.76824 7.33811 10.0541 8.40504C10.34 9.47198 9.70684 10.5686 8.63991 10.8545Z" fill="#E6E6E6" />
</svg>